<svg width="80" height="80" viewBox="0 0 80 80" fill="none" xmlns="http://www.w3.org/2000/svg">
<g clip-path="url(#clip0_2665_407)">
<path d="M28.6054 70.3874C28.1448 70.0274 27.6327 69.7384 27.0862 69.5301C26.5748 69.3504 26.0389 69.2495 25.497 69.231C24.323 69.2178 23.1526 69.3653 22.0188 69.6698C20.8594 69.9587 19.75 70.2972 18.9305 70.5766C18.1109 70.8554 17.5711 71.065 17.5711 71.065C17.5711 71.065 18.1009 71.3641 18.9405 71.7229C19.9917 72.1778 21.0916 72.5122 22.2187 72.7193C23.4926 72.9689 24.8059 72.9384 26.0667 72.6298C26.6478 72.5056 27.1868 72.2339 27.6316 71.8411C28.0765 71.4483 28.4119 70.9474 28.6054 70.3874Z" fill="#C4A386"/>
<path d="M25.0667 65.2644C25.498 66.2996 26.1859 67.2082 27.0657 67.9056C27.4827 68.2291 27.968 68.4542 28.485 68.5635C29.0178 68.6721 29.571 68.6202 30.0741 68.4136C30.1088 67.3575 29.8232 66.3157 29.2545 65.4244C28.7115 64.5963 28.0363 63.862 27.2556 63.2518C26.5774 62.7074 25.8664 62.2047 25.1267 61.7468C24.537 61.3778 24.1272 61.1688 24.1272 61.1688C24.1272 61.1688 24.1272 61.2984 24.1272 61.5277C24.1272 61.7569 24.1872 62.0656 24.2571 62.4644C24.4115 63.4274 24.6834 64.3677 25.0667 65.2644Z" fill="#C4A386"/>
<path d="M16.7309 67.9557C17.2957 67.9492 17.8515 67.8136 18.3557 67.5599C18.8599 67.3056 19.299 66.9402 19.6394 66.4907C19.3736 66.0214 19.0151 65.6106 18.5856 65.2835C18.1561 64.9563 17.6646 64.7193 17.1407 64.5868C16.0096 64.2853 14.8434 64.1342 13.6725 64.1384C12.4831 64.1384 11.2937 64.1384 10.4043 64.1384H8.915C8.915 64.1384 9.02497 64.268 9.22485 64.4674C9.42473 64.6668 9.73458 64.936 10.1144 65.2447C11.0284 65.9957 12.0363 66.6256 13.1128 67.1181C14.2376 67.6727 15.4761 67.9593 16.7309 67.9557Z" fill="#C4A386"/>
<path d="M18.9902 63.4011C19.3001 63.8262 19.7104 64.1688 20.1845 64.3981C20.6587 64.628 21.1822 64.7372 21.7088 64.7169C22.1247 63.7157 22.1497 62.5957 21.7788 61.5778C21.4238 60.6423 20.9247 59.7683 20.2995 58.9868C19.7299 58.2094 19.1502 57.5414 18.7304 57.0733C18.5205 56.8238 18.3406 56.6345 18.2206 56.505L18.0308 56.3056C18.0308 56.3056 18.0308 56.4256 17.9308 56.6345C17.8554 56.9336 17.7954 57.2363 17.7509 57.5414C17.6037 58.496 17.6037 59.4674 17.7509 60.4214C17.9075 61.5026 18.3336 62.5271 18.9902 63.4011Z" fill="#C4A386"/>
<path d="M4.73732 55.0998C3.91774 54.8407 3.37803 54.6912 3.37803 54.6912C3.37803 54.6912 3.428 54.8307 3.53798 55.0599C3.64789 55.2891 3.81779 55.5981 4.02771 55.9768C4.23756 56.3557 4.49744 56.7939 4.79732 57.2524C4.94723 57.4817 5.10711 57.7109 5.27702 57.9497L5.40699 58.1294L5.5769 58.3485L5.92669 58.7874C6.7901 59.8721 7.93887 60.6972 9.24496 61.1688C9.78586 61.3677 10.3679 61.4291 10.9386 61.3474C11.5093 61.2656 12.0505 61.0435 12.5133 60.7008C12.2464 59.6357 11.6043 58.702 10.7042 58.0697C10.4943 57.9002 10.2545 57.7408 10.0146 57.5712L9.25499 57.093L8.44538 56.6244C8.19553 56.4853 7.93565 56.3557 7.67577 56.2357C6.72293 55.792 5.74126 55.4124 4.73732 55.0998Z" fill="#C4A386"/>
<path d="M12.7937 57.1527C12.9295 57.6566 13.1987 58.1151 13.5733 58.4799C13.9478 58.8446 14.4139 59.102 14.9226 59.2255C15.5822 58.3909 15.9569 57.3676 15.992 56.3055C16.0184 55.4214 15.9582 54.5369 15.8121 53.6646C15.7519 53.223 15.6584 52.7865 15.5323 52.359C15.4023 51.9205 15.2724 51.5219 15.1425 51.1931C15.0125 50.8642 14.9026 50.5851 14.8227 50.3957L14.7127 50.0968L14.5028 50.3957C14.3729 50.5951 14.2129 50.8741 14.033 51.2229C13.5686 52.1094 13.1968 53.0411 12.9236 54.0034C12.8536 54.2725 12.7837 54.5515 12.7237 54.8305C12.6717 55.0939 12.635 55.3602 12.6138 55.6278C12.5888 55.893 12.5888 56.1599 12.6138 56.4249C12.6507 56.6727 12.7109 56.9163 12.7937 57.1527Z" fill="#C4A386"/>
<path d="M3.47791 51.0134C3.67343 51.2398 3.8874 51.4499 4.11761 51.6412C4.33403 51.828 4.5646 51.9979 4.80722 52.1495C5.26048 52.4795 5.78274 52.7029 6.33492 52.8031C6.8871 52.9032 7.45481 52.8773 7.99558 52.7275C8.09021 52.1957 8.05594 51.6489 7.89564 51.133C7.82155 50.8886 7.71749 50.6543 7.58579 50.4354C7.45546 50.208 7.31194 49.9884 7.156 49.7776C6.43964 48.88 5.57421 48.1114 4.59731 47.5054C3.73713 46.9 2.8428 46.3443 1.91874 45.8411L0.659399 45.1634C0.659399 45.1634 0.659398 45.3129 0.739339 45.562C0.819339 45.8112 0.909249 46.16 1.05916 46.5586C1.38017 47.6082 1.83355 48.6128 2.40847 49.5484C2.728 50.0625 3.08549 50.5522 3.47791 51.0134Z" fill="#C4A386"/>
<path d="M9.73477 50.595C9.95906 51.0673 10.3037 51.4728 10.7342 51.771C11.6947 51.2343 12.4106 50.3491 12.7332 49.2995C12.8129 49.0547 12.8763 48.805 12.9231 48.552L12.9831 48.1733C12.9831 48.0537 12.9831 47.9242 13.043 47.7946C13.1026 47.2853 13.1226 46.7722 13.103 46.2599C13.0696 45.3921 12.9861 44.527 12.8531 43.6688C12.7932 43.3299 12.7332 43.0509 12.6932 42.8615C12.6532 42.6722 12.6332 42.5626 12.6332 42.5626L12.3834 42.8117C12.1607 43.0325 11.9505 43.2654 11.7537 43.5093C11.1336 44.2667 10.5975 45.0886 10.1545 45.9609C9.66647 46.9441 9.4036 48.0232 9.38492 49.1201C9.38736 49.3789 9.42092 49.6365 9.48486 49.8874C9.54133 50.1319 9.62515 50.3692 9.73477 50.595Z" fill="#C4A386"/>
<path d="M1.45922 41.546C1.59916 41.8106 1.75958 42.0638 1.93899 42.3034C2.11982 42.5362 2.31684 42.756 2.52866 42.9612C2.91123 43.3629 3.37899 43.6743 3.89779 43.8726C4.4166 44.0709 4.97326 44.1511 5.52711 44.1072C5.72544 43.6075 5.79756 43.0668 5.73702 42.5327C5.70639 42.2783 5.6495 42.0278 5.56711 41.7852C5.50305 41.5333 5.41947 41.2868 5.3172 41.0477C5.07648 40.5433 4.77797 40.0685 4.4277 39.6326L3.88794 38.9549C3.70806 38.7257 3.50818 38.5065 3.31827 38.2872C2.52866 37.4302 1.66913 36.6329 1.05946 36.0449C0.449791 35.4569 0 35.0682 0 35.0682C0 35.0682 0 35.6662 0 36.5631C0.0466269 37.0782 0.12 37.5904 0.21988 38.0979C0.27988 38.3769 0.339821 38.6659 0.409791 38.9549C0.474507 39.2522 0.557971 39.5451 0.659642 39.8319C0.88621 40.421 1.15337 40.9937 1.45922 41.546Z" fill="#C4A386"/>
<path d="M8.40569 43.4595C9.42946 43.1171 10.2883 42.4065 10.8145 41.4663C10.9424 41.2496 11.0526 41.0229 11.1443 40.7886C11.2587 40.5591 11.3588 40.3228 11.4441 40.0811C11.6015 39.6162 11.7218 39.1396 11.804 38.6559C11.8939 38.1875 11.9938 37.7291 12.0438 37.3106C12.0438 37.0913 12.0438 36.892 12.1038 36.7026C12.1637 36.5133 12.1038 36.3339 12.1038 36.1645C12.1588 35.8014 12.1922 35.4353 12.2037 35.0682C12.2037 35.0682 11.764 35.3174 11.1343 35.7659L10.6246 36.1445C10.4447 36.294 10.2647 36.4435 10.0849 36.613C9.69453 36.9613 9.33041 37.3376 8.99543 37.7391C8.82552 37.9484 8.65561 38.1676 8.49567 38.3968L8.27579 38.7456L8.08587 39.1144C7.84778 39.5913 7.67304 40.0972 7.56617 40.6192C7.51047 40.8712 7.48366 41.1286 7.48617 41.3866C7.50098 41.6358 7.54116 41.8829 7.60611 42.1241C7.74981 42.6317 8.02569 43.0924 8.40569 43.4595Z" fill="#C4A386"/>
<path d="M4.24827 29.0888C3.97841 28.5706 3.68856 28.0922 3.40874 27.6039L2.63913 26.3581C2.18934 25.6306 1.85955 25.1623 1.85955 25.1623C1.85955 25.1623 1.68964 25.7303 1.5097 26.6073C1.44976 27.0557 1.37979 27.6039 1.33979 28.152C1.33979 28.431 1.33979 28.73 1.33979 29.029C1.33979 29.3279 1.33979 29.6369 1.33979 29.9458C1.3885 30.5643 1.4888 31.1777 1.63967 31.7796C1.79692 32.3568 2.03227 32.91 2.33931 33.4239C2.61525 33.904 2.99877 34.3139 3.46003 34.6217C3.92122 34.9294 4.44755 35.1266 4.99788 35.1978C5.14755 34.9711 5.26844 34.7267 5.3577 34.4703C5.45215 34.2294 5.51919 33.9787 5.55758 33.7229C5.6343 33.2116 5.61053 32.6904 5.48767 32.1882C5.37322 31.6494 5.20928 31.1223 4.99788 30.6135C4.778 30.0854 4.50815 29.5472 4.24827 29.0888Z" fill="#C4A386"/>
<path d="M10.7148 33.5933C11.0684 33.2477 11.3773 32.8593 11.6343 32.4373C11.915 32.0415 12.1592 31.6212 12.3639 31.1816C12.4739 30.9723 12.5538 30.763 12.6537 30.5637L12.9136 29.9658C13.0736 29.5771 13.1935 29.2183 13.3034 28.9093C13.5333 28.3015 13.6432 27.9128 13.6432 27.9128C13.2268 28.0203 12.8164 28.15 12.4139 28.3015C11.5141 28.6386 10.6637 29.0945 9.88521 29.6568C9.65781 29.812 9.44079 29.9817 9.23554 30.165C9.03572 30.3477 8.84557 30.5406 8.66587 30.7431C8.30718 31.1438 8.00766 31.5935 7.77631 32.0785C7.57166 32.5364 7.4661 33.0322 7.46646 33.5335C7.45966 33.7831 7.49339 34.0322 7.5664 34.271C7.64861 34.5267 7.76282 34.7711 7.90622 34.9985C8.97864 34.8727 9.97267 34.3754 10.7148 33.5933Z" fill="#C4A386"/>
<path d="M7.20594 25.8799C7.362 25.677 7.49292 25.4562 7.59579 25.2221C7.69448 24.9914 7.76821 24.7509 7.81567 24.5046C7.81567 24.2554 7.88558 23.9963 7.91561 23.7372C7.94791 23.1941 7.9177 22.649 7.82564 22.1127C7.74952 21.5387 7.63937 20.9696 7.49579 20.4086C7.20594 19.2725 6.89615 18.2062 6.6063 17.4188C6.31644 16.6316 6.1365 16.0336 6.1365 16.0336C6.1365 16.0336 6.05657 16.1632 5.93663 16.3824C5.81669 16.6016 5.65674 16.9405 5.46689 17.379C5.0143 18.3803 4.67895 19.4304 4.46737 20.5083C4.36815 21.1048 4.31137 21.7076 4.29746 22.3121C4.30092 22.6123 4.32427 22.9119 4.36743 23.209C4.4143 23.4948 4.4777 23.7776 4.55734 24.0561C4.70253 24.587 4.96176 25.08 5.31692 25.5012C5.68027 25.9404 6.14737 26.2829 6.67627 26.4977C6.88021 26.3167 7.05842 26.1089 7.20594 25.8799Z" fill="#C4A386"/>
<path d="M16.6815 21.5547C16.7914 21.3952 16.8414 21.3056 16.8414 21.3056H16.4916C16.2517 21.3056 15.9418 21.3056 15.5621 21.3853C15.1822 21.465 14.7325 21.5049 14.2527 21.6145C14.0129 21.6644 13.763 21.7341 13.5131 21.8038C13.2633 21.8736 13.0234 21.9733 12.7735 22.073C12.2622 22.2663 11.773 22.5136 11.3142 22.8104C10.8762 23.0898 10.4763 23.4248 10.1249 23.807C9.9632 23.9989 9.82558 24.2097 9.71508 24.4348C9.60678 24.6553 9.51979 24.8856 9.45526 25.1225C9.38702 25.3623 9.3534 25.6106 9.35525 25.86C9.3771 26.1269 9.42737 26.3909 9.50523 26.6472C10.0498 26.7529 10.6098 26.7529 11.1544 26.6472C11.6514 26.5336 12.1295 26.349 12.5736 26.0991C12.7835 25.9696 12.9934 25.84 13.1933 25.6905L13.4731 25.4613L13.763 25.2222C14.1242 24.9192 14.4586 24.5857 14.7625 24.2256C15.0625 23.9108 15.3429 23.578 15.602 23.229L15.7819 22.9699L15.9519 22.7407C16.0718 22.5812 16.1717 22.4317 16.2616 22.3022C16.3516 22.1726 16.5915 21.7241 16.6815 21.5547Z" fill="#C4A386"/>
<path d="M10.4645 18.5449C10.9368 18.3149 11.3453 17.9727 11.6539 17.5483C11.9632 17.1442 12.1906 16.6838 12.3235 16.193C12.8673 14.0996 12.7234 11.8752 12.5334 9.7451C12.4434 8.91793 12.3535 8.35984 12.3535 8.35984C11.9491 8.67347 11.643 9.03753 11.344 9.45608C11.041 9.8519 10.7607 10.2644 10.5044 10.6918C10.206 11.1897 9.93894 11.7056 9.70485 12.2366C9.4673 12.7911 9.27673 13.3644 9.13518 13.9507C9.01667 14.5207 8.96963 15.1032 8.99524 15.6847C9.00921 16.2409 9.14855 16.7867 9.40288 17.2818C9.65721 17.7769 10.0201 18.2086 10.4645 18.5449Z" fill="#C4A386"/>
<path d="M18.8598 17.9468C19.2496 17.6578 19.6095 17.3787 19.9293 17.0997C20.2491 16.8206 20.549 16.5516 20.7788 16.3224C21.0087 16.0932 21.2186 15.8938 21.3486 15.7543L21.5584 15.5351C21.1355 15.45 20.7086 15.3868 20.2791 15.3457C19.8506 15.304 19.4201 15.2873 18.9897 15.2959C18.4676 15.2922 17.946 15.3323 17.4306 15.4155C16.3537 15.5402 15.324 15.927 14.4321 16.5416C14.0289 16.8449 13.6893 17.2241 13.4327 17.6578C13.2065 18.112 13.0998 18.6162 13.1228 19.1228C14.1092 19.5482 15.2164 19.6048 16.2412 19.2822C16.7218 19.1433 17.1846 18.9493 17.6205 18.7042C18.0521 18.4832 18.4665 18.23 18.8598 17.9468Z" fill="#C4A386"/>
<path d="M15.6685 13.4065C16.2565 13.4065 17.1741 13.4603 17.9207 12.9442C18.1232 12.7962 18.3167 12.6365 18.5003 12.4659C18.6926 12.2957 18.873 12.1125 19.0401 11.9177C19.401 11.529 19.735 11.1161 20.0396 10.682C20.6193 9.82496 21.119 8.93797 21.4788 8.27027C21.6587 7.94138 21.7844 7.65253 21.8843 7.45324L21.952 7.283L21.9885 7.16406L21.5229 7.19671C21.2129 7.23755 21.0317 7.26478 20.7292 7.34347C19.7743 7.58514 18.8541 7.94681 17.9906 8.41976C16.9931 8.93445 16.1305 9.67511 15.472 10.5823C15.1664 11.0134 14.9615 11.5071 14.8723 12.0274C14.7728 12.4636 14.7756 12.9015 14.8723 13.3528" fill="#C4A386"/>
<path d="M51.3944 70.3874C51.855 70.0274 52.3671 69.7384 52.9136 69.5301C53.425 69.3504 53.9609 69.2495 54.5028 69.231C55.6768 69.2178 56.8471 69.3653 57.9809 69.6698C59.1403 69.9587 60.2498 70.2972 61.0693 70.5766C61.8889 70.8554 62.4286 71.065 62.4286 71.065C62.4286 71.065 61.8989 71.3641 61.0593 71.7229C60.008 72.1778 58.9082 72.5122 57.781 72.7193C56.5071 72.9689 55.1939 72.9384 53.933 72.6298C53.352 72.5056 52.8129 72.2339 52.3682 71.8411C51.9233 71.4483 51.5879 70.9474 51.3944 70.3874Z" fill="#C4A386"/>
<path d="M54.933 65.2644C54.5017 66.2996 53.8139 67.2082 52.9341 67.9056C52.5171 68.2291 52.0318 68.4542 51.5148 68.5635C50.982 68.6721 50.4287 68.6202 49.9257 68.4136C49.891 67.3575 50.1766 66.3157 50.7453 65.4244C51.2882 64.5963 51.9635 63.862 52.7442 63.2518C53.4224 62.7074 54.1334 62.2047 54.8731 61.7468C55.4628 61.3778 55.8725 61.1688 55.8725 61.1688C55.8725 61.1688 55.8725 61.2984 55.8725 61.5277C55.8725 61.7569 55.8126 62.0656 55.7426 62.4644C55.5882 63.4274 55.3164 64.3677 54.933 65.2644Z" fill="#C4A386"/>
<path d="M63.2688 67.9557C62.7041 67.9492 62.1482 67.8136 61.644 67.5599C61.1399 67.3056 60.7008 66.9402 60.3603 66.4907C60.6262 66.0214 60.9847 65.6106 61.4141 65.2835C61.8436 64.9563 62.3352 64.7193 62.859 64.5868C63.9901 64.2853 65.1563 64.1342 66.3273 64.1384C67.5166 64.1384 68.706 64.1384 69.5955 64.1384H71.0848C71.0848 64.1384 70.9748 64.268 70.7749 64.4674C70.575 64.6668 70.2652 64.936 69.8854 65.2447C68.9713 65.9957 67.9635 66.6256 66.887 67.1181C65.7621 67.6727 64.5236 67.9593 63.2688 67.9557Z" fill="#C4A386"/>
<path d="M61.0095 63.4011C60.6996 63.8262 60.2894 64.1688 59.8153 64.3981C59.3411 64.628 58.8176 64.7372 58.291 64.7169C57.875 63.7157 57.8501 62.5957 58.221 61.5778C58.576 60.6423 59.075 59.7683 59.7002 58.9868C60.2699 58.2094 60.8496 57.5414 61.2694 57.0733C61.4793 56.8238 61.6592 56.6345 61.7792 56.505L61.969 56.3056C61.969 56.3056 61.969 56.4256 62.0689 56.6345C62.1443 56.9336 62.2044 57.2363 62.2489 57.5414C62.396 58.496 62.396 59.4674 62.2489 60.4214C62.0923 61.5026 61.6661 62.5271 61.0095 63.4011Z" fill="#C4A386"/>
<path d="M75.2625 55.0998C76.082 54.8407 76.6217 54.6912 76.6217 54.6912C76.6217 54.6912 76.5718 54.8307 76.4618 55.0599C76.3519 55.2891 76.182 55.5981 75.9721 55.9768C75.7622 56.3557 75.5023 56.7939 75.2025 57.2524C75.0525 57.4817 74.8927 57.7109 74.7228 57.9497L74.5928 58.1294L74.4229 58.3485L74.0731 58.7874C73.2097 59.8721 72.0609 60.6972 70.7548 61.1688C70.2139 61.3677 69.6318 61.4291 69.0612 61.3474C68.4905 61.2656 67.9493 61.0435 67.4865 60.7008C67.7534 59.6357 68.3955 58.702 69.2956 58.0697C69.5054 57.9002 69.7453 57.7408 69.9852 57.5712L70.7448 57.093L71.5544 56.6244C71.8042 56.4853 72.0641 56.3557 72.324 56.2357C73.2768 55.792 74.2585 55.4124 75.2625 55.0998Z" fill="#C4A386"/>
<path d="M67.2061 57.1527C67.0703 57.6566 66.8011 58.1151 66.4265 58.4799C66.0519 58.8446 65.5859 59.102 65.0772 59.2255C64.4175 58.3909 64.0429 57.3676 64.0077 56.3055C63.9814 55.4214 64.0416 54.5369 64.1877 53.6646C64.2479 53.223 64.3414 52.7865 64.4675 52.359C64.5975 51.9205 64.7274 51.5219 64.8573 51.1931C64.9873 50.8642 65.0972 50.5851 65.1771 50.3957L65.2871 50.0968L65.497 50.3957C65.6269 50.5951 65.7869 50.8741 65.9667 51.2229C66.4312 52.1094 66.803 53.0411 67.0762 54.0034C67.1461 54.2725 67.2161 54.5515 67.276 54.8305C67.328 55.0939 67.3648 55.3602 67.386 55.6278C67.411 55.893 67.411 56.1599 67.386 56.4249C67.3491 56.6727 67.2888 56.9163 67.2061 57.1527Z" fill="#C4A386"/>
<path d="M76.5219 51.0134C76.3263 51.2398 76.1124 51.4499 75.8822 51.6412C75.6657 51.828 75.4352 51.9979 75.1926 52.1495C74.7393 52.4795 74.217 52.7029 73.6649 52.8031C73.1127 52.9032 72.545 52.8773 72.0042 52.7275C71.9096 52.1957 71.9438 51.6489 72.1041 51.133C72.1782 50.8886 72.2823 50.6543 72.414 50.4354C72.5443 50.208 72.6878 49.9884 72.8438 49.7776C73.5601 48.88 74.4256 48.1114 75.4025 47.5054C76.2626 46.9 77.157 46.3443 78.081 45.8411L79.3404 45.1634C79.3404 45.1634 79.3404 45.3129 79.2604 45.562C79.1804 45.8112 79.0905 46.16 78.9406 46.5586C78.6196 47.6082 78.1662 48.6128 77.5913 49.5484C77.2718 50.0625 76.9143 50.5522 76.5219 51.0134Z" fill="#C4A386"/>
<path d="M70.265 50.595C70.0407 51.0673 69.6961 51.4728 69.2655 51.771C68.3051 51.2343 67.5891 50.3491 67.2666 49.2995C67.1869 49.0547 67.1235 48.805 67.0767 48.552L67.0167 48.1733C67.0167 48.0537 67.0167 47.9242 66.9568 47.7946C66.8972 47.2853 66.8771 46.7722 66.8968 46.2599C66.9302 45.3921 67.0137 44.527 67.1467 43.6688C67.2066 43.3299 67.2666 43.0509 67.3066 42.8615C67.3466 42.6722 67.3666 42.5626 67.3666 42.5626L67.6164 42.8117C67.839 43.0325 68.0492 43.2654 68.2461 43.5093C68.8661 44.2667 69.4023 45.0886 69.8452 45.9609C70.3333 46.9441 70.5962 48.0232 70.6149 49.1201C70.6124 49.3789 70.5789 49.6365 70.5149 49.8874C70.4584 50.1319 70.3746 50.3692 70.265 50.595Z" fill="#C4A386"/>
<path d="M78.5406 41.546C78.4006 41.8106 78.2402 42.0638 78.0608 42.3034C77.88 42.5362 77.6829 42.756 77.4711 42.9612C77.0886 43.3629 76.6208 43.6743 76.102 43.8726C75.5832 44.0709 75.0265 44.1511 74.4727 44.1072C74.2743 43.6075 74.2022 43.0668 74.2628 42.5327C74.2934 42.2783 74.3503 42.0278 74.4327 41.7852C74.4967 41.5333 74.5803 41.2868 74.6826 41.0477C74.9233 40.5433 75.2218 40.0685 75.5721 39.6326L76.1118 38.9549C76.2917 38.7257 76.4916 38.5065 76.6815 38.2872C77.4711 37.4302 78.3306 36.6329 78.9403 36.0449C79.55 35.4569 79.9998 35.0682 79.9998 35.0682C79.9998 35.0682 79.9998 35.6662 79.9998 36.5631C79.9531 37.0782 79.8798 37.5904 79.7799 38.0979C79.7199 38.3769 79.66 38.6659 79.59 38.9549C79.5253 39.2522 79.4418 39.5451 79.3401 39.8319C79.1136 40.421 78.8464 40.9937 78.5406 41.546Z" fill="#C4A386"/>
<path d="M71.5941 43.4595C70.5703 43.1171 69.7114 42.4065 69.1853 41.4663C69.0574 41.2496 68.9472 41.0229 68.8555 40.7886C68.7411 40.5591 68.641 40.3228 68.5556 40.0811C68.3983 39.6162 68.278 39.1396 68.1958 38.6559C68.1059 38.1875 68.006 37.7291 67.956 37.3106C67.956 37.0913 67.956 36.892 67.896 36.7026C67.836 36.5133 67.896 36.3339 67.896 36.1645C67.8409 35.8014 67.8076 35.4353 67.796 35.0682C67.796 35.0682 68.2358 35.3174 68.8655 35.7659L69.3752 36.1445C69.5551 36.294 69.735 36.4435 69.9149 36.613C70.3052 36.9613 70.6694 37.3376 71.0043 37.7391C71.1743 37.9484 71.3442 38.1676 71.5041 38.3968L71.724 38.7456L71.9139 39.1144C72.152 39.5913 72.3267 40.0972 72.4336 40.6192C72.4893 40.8712 72.5161 41.1286 72.5136 41.3866C72.4988 41.6358 72.4586 41.8829 72.3937 42.1241C72.25 42.6317 71.9741 43.0924 71.5941 43.4595Z" fill="#C4A386"/>
<path d="M75.7515 29.0888C76.0214 28.5706 76.3112 28.0922 76.591 27.6039L77.3606 26.3581C77.8104 25.6306 78.1402 25.1623 78.1402 25.1623C78.1402 25.1623 78.3101 25.7303 78.4901 26.6073C78.55 27.0557 78.62 27.6039 78.66 28.152C78.66 28.431 78.66 28.73 78.66 29.029C78.66 29.3279 78.66 29.6369 78.66 29.9458C78.6113 30.5643 78.511 31.1777 78.3601 31.7796C78.2029 32.3568 77.9675 32.91 77.6605 33.4239C77.3845 33.904 77.001 34.3139 76.5397 34.6217C76.0786 34.9294 75.5522 35.1266 75.0019 35.1978C74.8522 34.9711 74.7313 34.7267 74.6421 34.4703C74.5476 34.2294 74.4806 33.9787 74.4422 33.7229C74.3655 33.2116 74.3892 32.6904 74.5121 32.1882C74.6266 31.6494 74.7905 31.1223 75.0019 30.6135C75.2218 30.0854 75.4916 29.5472 75.7515 29.0888Z" fill="#C4A386"/>
<path d="M69.285 33.5933C68.9313 33.2477 68.6224 32.8593 68.3655 32.4373C68.0848 32.0415 67.8405 31.6212 67.6359 31.1816C67.5259 30.9723 67.446 30.763 67.346 30.5637L67.0861 29.9658C66.9262 29.5771 66.8063 29.2183 66.6964 28.9093C66.4664 28.3015 66.3565 27.9128 66.3565 27.9128C66.773 28.0203 67.1834 28.15 67.5859 28.3015C68.4857 28.6386 69.3361 29.0945 70.1146 29.6568C70.342 29.812 70.559 29.9817 70.7642 30.165C70.9641 30.3477 71.1542 30.5406 71.3339 30.7431C71.6926 31.1438 71.9921 31.5935 72.2235 32.0785C72.4281 32.5364 72.5337 33.0322 72.5333 33.5335C72.5401 33.7831 72.5064 34.0322 72.4334 34.271C72.3512 34.5267 72.237 34.7711 72.0935 34.9985C71.0211 34.8727 70.0271 34.3754 69.285 33.5933Z" fill="#C4A386"/>
<path d="M72.7938 25.8799C72.6378 25.677 72.5068 25.4562 72.404 25.2221C72.3053 24.9914 72.2316 24.7509 72.1841 24.5046C72.1841 24.2554 72.1142 23.9963 72.0842 23.7372C72.0519 23.1941 72.0821 22.649 72.1741 22.1127C72.2503 21.5387 72.3604 20.9696 72.504 20.4086C72.7938 19.2725 73.1036 18.2062 73.3935 17.4188C73.6833 16.6316 73.8633 16.0336 73.8633 16.0336C73.8633 16.0336 73.9432 16.1632 74.0631 16.3824C74.1831 16.6016 74.343 16.9405 74.5329 17.379C74.9855 18.3803 75.3208 19.4304 75.5324 20.5083C75.6316 21.1048 75.6884 21.7076 75.7023 22.3121C75.6989 22.6123 75.6755 22.9119 75.6323 23.209C75.5855 23.4948 75.5221 23.7776 75.4424 24.0561C75.2972 24.587 75.038 25.08 74.6829 25.5012C74.3195 25.9404 73.8524 26.2829 73.3235 26.4977C73.1196 26.3167 72.9414 26.1089 72.7938 25.8799Z" fill="#C4A386"/>
<path d="M63.3183 21.5547C63.2084 21.3952 63.1584 21.3056 63.1584 21.3056H63.5082C63.7481 21.3056 64.0579 21.3056 64.4377 21.3853C64.8175 21.465 65.2673 21.5049 65.747 21.6145C65.9869 21.6644 66.2368 21.7341 66.4867 21.8038C66.7365 21.8736 66.9764 21.9733 67.2262 22.073C67.7376 22.2663 68.2268 22.5136 68.6855 22.8104C69.1236 23.0898 69.5234 23.4248 69.8749 23.807C70.0366 23.9989 70.1742 24.2097 70.2847 24.4348C70.393 24.6553 70.48 24.8856 70.5445 25.1225C70.6128 25.3623 70.6464 25.6106 70.6445 25.86C70.6227 26.1269 70.5724 26.3909 70.4945 26.6472C69.95 26.7529 69.39 26.7529 68.8454 26.6472C68.3483 26.5336 67.8703 26.349 67.4262 26.0991C67.2163 25.9696 67.0064 25.84 66.8065 25.6905L66.5267 25.4613L66.2368 25.2222C65.8756 24.9192 65.5412 24.5857 65.2373 24.2256C64.9373 23.9108 64.6569 23.578 64.3978 23.229L64.2178 22.9699L64.0479 22.7407C63.928 22.5812 63.828 22.4317 63.7381 22.3022C63.6482 22.1726 63.4083 21.7241 63.3183 21.5547Z" fill="#C4A386"/>
<path d="M69.5353 18.5449C69.0629 18.3149 68.6545 17.9727 68.3459 17.5483C68.0366 17.1442 67.8091 16.6838 67.6763 16.193C67.1325 14.0996 67.2764 11.8752 67.4664 9.7451C67.5564 8.91793 67.6463 8.35984 67.6463 8.35984C68.0507 8.67347 68.3567 9.03753 68.6558 9.45608C68.9588 9.8519 69.2391 10.2644 69.4953 10.6918C69.7938 11.1897 70.0608 11.7056 70.2949 12.2366C70.5325 12.7911 70.723 13.3644 70.8646 13.9507C70.9831 14.5207 71.0301 15.1032 71.0045 15.6847C70.9906 16.2409 70.8512 16.7867 70.5969 17.2818C70.3426 17.7769 69.9797 18.2086 69.5353 18.5449Z" fill="#C4A386"/>
<path d="M61.1399 17.9468C60.7501 17.6578 60.3903 17.3787 60.0705 17.0997C59.7507 16.8206 59.4508 16.5516 59.2209 16.3224C58.991 16.0932 58.7812 15.8938 58.6512 15.7543L58.4414 15.5351C58.8642 15.45 59.2912 15.3868 59.7206 15.3457C60.1491 15.304 60.5796 15.2873 61.01 15.2959C61.5322 15.2922 62.0537 15.3323 62.5692 15.4155C63.6461 15.5402 64.6758 15.927 65.5676 16.5416C65.9709 16.8449 66.3104 17.2241 66.5671 17.6578C66.7933 18.112 66.8999 18.6162 66.8769 19.1228C65.8906 19.5482 64.7834 19.6048 63.7586 19.2822C63.278 19.1433 62.8152 18.9493 62.3793 18.7042C61.9476 18.4832 61.5333 18.23 61.1399 17.9468Z" fill="#C4A386"/>
<path d="M64.3313 13.4065C63.7433 13.4065 62.8257 13.4603 62.0791 12.9442C61.8766 12.7962 61.6831 12.6365 61.4994 12.4659C61.3071 12.2957 61.1268 12.1125 60.9597 11.9177C60.5988 11.529 60.2648 11.1161 59.9602 10.682C59.3805 9.82496 58.8807 8.93797 58.521 8.27027C58.341 7.94138 58.2154 7.65253 58.1154 7.45324L58.0478 7.283L58.0112 7.16406L58.4769 7.19671C58.7868 7.23755 58.9681 7.26478 59.2706 7.34347C60.2255 7.58514 61.1456 7.94681 62.0092 8.41976C63.0067 8.93445 63.8693 9.67511 64.5278 10.5823C64.8333 11.0134 65.0382 11.5071 65.1275 12.0274C65.227 12.4636 65.2242 12.9015 65.1275 13.3528" fill="#C4A386"/>
<g clip-path="url(#clip1_2665_407)">
<path d="M41.5839 30.5788V27.9732C43.6961 27.2612 45.0767 25.568 45.1194 23.5H41.9745C41.9475 24.0049 41.7274 24.48 41.3597 24.8265C40.992 25.173 40.5051 25.3642 40.0003 25.3603C39.4954 25.3642 39.0085 25.1731 38.6407 24.8266C38.273 24.4801 38.0527 24.005 38.0257 23.5H34.8812C34.9239 25.568 36.3045 27.2613 38.4165 27.9732V30.5788C35.6654 30.9797 33.168 32.4091 31.4263 34.5794C29.6847 36.7498 28.8281 39.5002 29.0287 42.2775C29.2294 45.0548 30.4724 47.653 32.5079 49.5496C34.5433 51.4462 37.2202 52.5005 40.0002 52.5005C42.7802 52.5005 45.4571 51.4462 47.4926 49.5496C49.528 47.653 50.7711 45.0548 50.9717 42.2775C51.1723 39.5002 50.3157 36.7498 48.5741 34.5794C46.8324 32.4091 44.335 30.9797 41.5839 30.5788H41.5839ZM40.0002 49.5691C38.13 49.5672 36.3183 48.9158 34.8739 47.7259C33.4294 46.536 32.4415 44.8812 32.0786 43.0436H35.3307C36.037 45.1561 37.861 46.5513 39.9563 46.5711V43.419C39.4379 43.419 38.9408 43.2128 38.5742 42.8456C38.2077 42.4785 38.0017 41.9805 38.0017 41.4613C38.0017 40.942 38.2077 40.4441 38.5742 40.0769C38.9408 39.7098 39.4379 39.5035 39.9563 39.5035V36.3519C37.8611 36.3715 36.0371 37.7669 35.3307 39.8795H32.0864C32.3892 38.379 33.111 36.9954 34.1679 35.8895C35.2248 34.7836 36.5733 34.0009 38.0567 33.6324C39.5402 33.2639 41.0976 33.3247 42.5479 33.8077C43.9982 34.2907 45.2818 35.1762 46.2496 36.3611C47.2174 37.546 47.8295 38.9817 48.0148 40.5013C48.2001 42.0209 47.951 43.562 47.2964 44.9453C46.6419 46.3287 45.6088 47.4976 44.3172 48.3161C43.0256 49.1346 41.5286 49.5691 40.0002 49.5691L40.0002 49.5691Z" fill="#C4A386"/>
</g>
</g>
<defs>
<clipPath id="clip0_2665_407">
<rect width="80" height="80" fill="white"/>
</clipPath>
<clipPath id="clip1_2665_407">
<rect width="22" height="29" fill="white" transform="translate(29 23.5)"/>
</clipPath>
</defs>
</svg>
