<svg width="40" height="40" viewBox="0 0 40 40" fill="none" xmlns="http://www.w3.org/2000/svg">
<circle cx="20" cy="20" r="19.5" stroke="#E6D8CC"/>
<path d="M19.9792 11.8009C22.6445 11.8009 22.9574 11.8128 24.0108 11.8604C24.9851 11.9039 25.5118 12.0663 25.8643 12.2049C26.3316 12.3871 26.6643 12.6009 27.0128 12.9495C27.3613 13.298 27.5792 13.6307 27.7574 14.098C27.892 14.4505 28.0584 14.9772 28.1019 15.9514C28.1495 17.0049 28.1613 17.3178 28.1613 19.9831C28.1613 22.6485 28.1495 22.9613 28.1019 24.0148C28.0584 24.9891 27.896 25.5158 27.7574 25.8683C27.5752 26.3356 27.3613 26.6683 27.0128 27.0168C26.6643 27.3653 26.3316 27.5831 25.8643 27.7613C25.5118 27.896 24.9851 28.0623 24.0108 28.1059C22.9574 28.1534 22.6445 28.1653 19.9792 28.1653C17.3138 28.1653 17.0009 28.1534 15.9475 28.1059C14.9732 28.0623 14.4465 27.9 14.094 27.7613C13.6267 27.5792 13.294 27.3653 12.9455 27.0168C12.597 26.6683 12.3792 26.3356 12.2009 25.8683C12.0663 25.5158 11.9 24.9891 11.8564 24.0148C11.8089 22.9613 11.797 22.6485 11.797 19.9831C11.797 17.3178 11.8089 17.0049 11.8564 15.9514C11.9 14.9772 12.0623 14.4505 12.2009 14.098C12.3831 13.6307 12.597 13.298 12.9455 12.9495C13.294 12.6009 13.6267 12.3831 14.094 12.2049C14.4465 12.0703 14.9732 11.9039 15.9475 11.8604C17.0009 11.8089 17.3138 11.8009 19.9792 11.8009ZM19.9792 10.0029C17.2703 10.0029 16.9297 10.0148 15.8643 10.0623C14.8029 10.1099 14.0782 10.2802 13.4445 10.5257C12.7871 10.7792 12.2326 11.1237 11.6782 11.6782C11.1237 12.2326 10.7831 12.791 10.5257 13.4445C10.2802 14.0782 10.1099 14.8029 10.0623 15.8683C10.0148 16.9297 10.0029 17.2703 10.0029 19.9792C10.0029 22.6881 10.0148 23.0287 10.0623 24.094C10.1099 25.1554 10.2802 25.8802 10.5257 26.5178C10.7792 27.1752 11.1237 27.7297 11.6782 28.2841C12.2326 28.8386 12.791 29.1792 13.4445 29.4366C14.0782 29.6821 14.8029 29.8524 15.8683 29.9C16.9336 29.9475 17.2703 29.9594 19.9831 29.9594C22.696 29.9594 23.0326 29.9475 24.098 29.9C25.1594 29.8524 25.8841 29.6821 26.5217 29.4366C27.1792 29.1831 27.7336 28.8386 28.2881 28.2841C28.8425 27.7297 29.1831 27.1712 29.4406 26.5178C29.6861 25.8841 29.8564 25.1594 29.9039 24.094C29.9514 23.0287 29.9633 22.692 29.9633 19.9792C29.9633 17.2663 29.9514 16.9297 29.9039 15.8643C29.8564 14.8029 29.6861 14.0782 29.4406 13.4406C29.1871 12.7831 28.8425 12.2287 28.2881 11.6742C27.7336 11.1198 27.1752 10.7792 26.5217 10.5217C25.8881 10.2762 25.1633 10.1059 24.098 10.0584C23.0287 10.0148 22.6881 10.0029 19.9792 10.0029Z" fill="#996830"/>
<path d="M19.9792 14.8545C17.1514 14.8545 14.8544 17.1476 14.8544 19.9792C14.8544 22.8109 17.1514 25.104 19.9792 25.104C22.8069 25.104 25.1039 22.807 25.1039 19.9792C25.1039 17.1515 22.8069 14.8545 19.9792 14.8545ZM19.9792 23.306C18.1415 23.306 16.6524 21.8169 16.6524 19.9792C16.6524 18.1416 18.1415 16.6525 19.9792 16.6525C21.8168 16.6525 23.3059 18.1416 23.3059 19.9792C23.3059 21.8169 21.8168 23.306 19.9792 23.306Z" fill="#996830"/>
<path d="M25.3059 15.8486C25.9665 15.8486 26.5019 15.3131 26.5019 14.6526C26.5019 13.992 25.9665 13.4565 25.3059 13.4565C24.6453 13.4565 24.1099 13.992 24.1099 14.6526C24.1099 15.3131 24.6453 15.8486 25.3059 15.8486Z" fill="#996830"/>
</svg>
