<svg width="40" height="40" viewBox="0 0 40 40" fill="none" xmlns="http://www.w3.org/2000/svg">
<path d="M29.58 15.0496C30 16.6496 30 19.9896 30 19.9896C30 19.9896 30 23.3296 29.58 24.9296C29.36 25.8096 28.68 26.5096 27.82 26.7496C26.26 27.1896 20 27.1896 20 27.1896C20 27.1896 13.74 27.1896 12.18 26.7496C11.32 26.5096 10.64 25.8096 10.42 24.9296C10 23.3296 10 19.9896 10 19.9896C10 19.9896 10 16.6496 10.42 15.0496C10.64 14.1696 11.32 13.4696 12.18 13.2296C13.74 12.8096 20 12.8096 20 12.8096C20 12.8096 26.26 12.8096 27.82 13.2296C28.68 13.4696 29.36 14.1696 29.58 15.0496ZM18.12 23.4296L23.12 20.3096L18.12 17.1896V23.4296Z" fill="#996830"/>
<circle cx="20" cy="20" r="19.5" stroke="#E6D8CC"/>
</svg>
